<svg width="80" height="92" viewBox="0 0 80 92" fill="none" xmlns="http://www.w3.org/2000/svg">
<mask id="mask0_1_201" style="mask-type:luminance" maskUnits="userSpaceOnUse" x="0" y="0" width="41" height="48">
<path d="M14.4809 47.1668L40.7616 0.466797L0.887451 23.817L14.4809 47.1668Z" fill="white"/>
</mask>
<g mask="url(#mask0_1_201)">
<path d="M40.7615 0.466797H0.887451V47.1668H40.7615V0.466797Z" fill="url(#paint0_linear_1_201)"/>
</g>
<path d="M79.0051 23.8169L53.4491 69.24H79.0051V23.8169Z" fill="#118C45"/>
<mask id="mask1_1_201" style="mask-type:luminance" maskUnits="userSpaceOnUse" x="27" y="0" width="53" height="47">
<path d="M40.7618 0.466797L79.0049 23.8166L66.227 46.5284L53.449 23.4975H27.6213L40.7618 0.466797Z" fill="white"/>
</mask>
<g mask="url(#mask1_1_201)">
<path d="M79.0049 0.466797H27.6213V46.5284H79.0049V0.466797Z" fill="url(#paint1_linear_1_201)"/>
</g>
<path d="M0.887264 23.8169L39.2724 91.4956L0.162354 69.24L0.887264 23.8169Z" fill="#821744"/>
<mask id="mask2_1_201" style="mask-type:luminance" maskUnits="userSpaceOnUse" x="26" y="69" width="54" height="23">
<path d="M79.0049 69.24L39.2721 91.4956L26.6497 69.24H79.0049Z" fill="white"/>
</mask>
<g mask="url(#mask2_1_201)">
<path d="M79.0049 69.24H26.6497V91.4956H79.0049V69.24Z" fill="url(#paint2_linear_1_201)"/>
</g>
<path d="M40.7618 0.466797L66.2271 46.5284L79.0051 23.8168L40.7618 0.466797Z" fill="#DC2227"/>
<defs>
<linearGradient id="paint0_linear_1_201" x1="0.898927" y1="23.8441" x2="40.7733" y2="23.8441" gradientUnits="userSpaceOnUse">
<stop stop-color="#D9D9D7"/>
<stop offset="1" stop-color="#F6F6F8"/>
</linearGradient>
<linearGradient id="paint1_linear_1_201" x1="27.6027" y1="23.4871" x2="78.9863" y2="23.4871" gradientUnits="userSpaceOnUse">
<stop stop-color="#E51E25"/>
<stop offset="1" stop-color="#D41F26"/>
</linearGradient>
<linearGradient id="paint2_linear_1_201" x1="26.6397" y1="80.358" x2="78.995" y2="80.358" gradientUnits="userSpaceOnUse">
<stop stop-color="#4174B9"/>
<stop offset="1" stop-color="#469AD5"/>
</linearGradient>
</defs>
</svg>
